<?xml version="1.0" standalone="no"?>
<!DOCTYPE svg PUBLIC "-//W3C//DTD SVG 20010904//EN"
 "http://www.w3.org/TR/2001/REC-SVG-20010904/DTD/svg10.dtd">
<svg version="1.0" xmlns="http://www.w3.org/2000/svg"
 width="260.000000pt" height="260.000000pt" viewBox="0 0 260.000000 260.000000"
 preserveAspectRatio="xMidYMid meet">
<metadata>
Created by potrace 1.11, written by Peter Selinger 2001-2013
</metadata>
<g transform="translate(0.000000,260.000000) scale(0.100000,-0.100000)"
fill="#000000" stroke="none">
<path d="M845 2428 c-180 -24 -315 -101 -402 -229 -34 -50 -79 -158 -88 -209
-3 -19 -8 -46 -10 -60 -3 -14 -6 -62 -7 -107 l-1 -83 -119 0 c-166 0 -207 -20
-210 -103 -3 -79 33 -100 177 -104 61 -1 119 -2 130 -2 21 -1 21 -3 21 -638 0
-608 1 -639 19 -670 43 -73 173 -76 222 -5 17 25 18 67 19 657 1 347 2 637 3
645 1 13 28 15 183 14 202 -1 240 5 264 41 19 29 21 83 5 114 -24 45 -57 51
-263 51 l-194 0 3 93 c8 276 108 381 386 401 46 4 88 13 103 22 51 34 62 104
24 154 -18 23 -25 25 -112 26 -51 0 -120 -3 -153 -8z"/>
<path d="M1815 1768 c-209 -28 -398 -156 -503 -341 -43 -75 -88 -197 -97 -263
-3 -22 -8 -51 -11 -65 -7 -38 -7 -225 1 -284 45 -344 273 -592 589 -641 21 -3
48 -8 60 -10 47 -10 226 -4 300 10 143 28 324 106 380 165 42 44 58 98 40 140
-33 78 -68 78 -215 2 -166 -86 -222 -103 -359 -107 -181 -5 -291 31 -389 126
-81 81 -151 257 -151 384 l0 34 520 0 c286 0 533 3 549 7 46 10 65 48 65 130
-1 333 -153 584 -414 682 -89 34 -248 47 -365 31z m264 -214 c86 -25 164 -85
212 -163 22 -36 56 -129 62 -171 17 -108 18 -127 5 -132 -11 -3 -846 -2 -885
1 -11 1 -11 23 3 81 3 14 8 33 10 44 13 69 75 182 129 239 103 107 296 149
464 101z"/>
</g>
</svg>
